<svg xmlns="http://www.w3.org/2000/svg" xmlns:xlink="http://www.w3.org/1999/xlink" width="46" height="46" viewBox="0 0 46 46"><defs><path id="xueha" d="M1130.32 1133.71c-1.44.51-2.84 1.76-3.24 2.74-.4.98-.3 2.85.36 4.23a4.33 4.33 0 0 1-.89 4.58 4.32 4.32 0 0 1-4.57.88c-1.38-.65-3.25-.76-4.24-.35-.98.4-2.22 1.8-2.73 3.24a4.33 4.33 0 0 1-3.87 2.6 4.33 4.33 0 0 1-3.86-2.6c-.51-1.44-1.76-2.83-2.74-3.24-.98-.4-2.85-.3-4.23.35a4.32 4.32 0 0 1-4.57-.88 4.33 4.33 0 0 1-.89-4.58c.66-1.38.76-3.25.36-4.23-.41-.98-1.8-2.23-3.24-2.74a4.33 4.33 0 0 1-2.61-3.86 4.32 4.32 0 0 1 2.6-3.86c1.45-.5 2.84-1.76 3.24-2.74.41-.98.3-2.85-.35-4.23a4.33 4.33 0 0 1 .89-4.58 4.33 4.33 0 0 1 4.57-.88c1.38.65 3.25.76 4.23.35.98-.4 2.23-1.8 2.74-3.24a4.33 4.33 0 0 1 3.86-2.6 4.33 4.33 0 0 1 3.87 2.6c.5 1.44 1.75 2.84 2.74 3.24.98.41 2.85.3 4.23-.35a4.33 4.33 0 0 1 4.57.88 4.33 4.33 0 0 1 .89 4.58c-.66 1.38-.76 3.25-.36 4.23.4.99 1.8 2.23 3.24 2.74 1.44.51 2.6 2.24 2.6 3.86a4.33 4.33 0 0 1-2.6 3.86zm-11.2-3.85a7.99 7.99 0 1 0-15.96-.02 7.99 7.99 0 0 0 15.97.02z"/></defs><g><g transform="translate(-1088 -1107)"><use xlink:href="#xueha"/><use fill="#555" xlink:href="#xueha"/></g></g></svg>