<svg xmlns="http://www.w3.org/2000/svg" xmlns:xlink="http://www.w3.org/1999/xlink" width="56" height="46" viewBox="0 0 56 46"><defs><path id="zpe9a" d="M1387 4920.3c0 .94-.76 1.7-1.69 1.7h-50.62a1.69 1.69 0 0 1 0-3.39h50.62c.93 0 1.69.76 1.69 1.7zm0-8.46v1.7c0 .93-.76 1.69-1.69 1.69h-50.62c-.93 0-1.69-.76-1.69-1.7v-1.69a27.1 27.1 0 0 1 25.31-27.07v-3.38h-3.37a1.69 1.69 0 0 1 0-3.39h10.12a1.69 1.69 0 0 1 0 3.39h-3.37v3.38a27.1 27.1 0 0 1 25.3 27.07zm-3.38 0a23.66 23.66 0 0 0-23.62-23.68 23.66 23.66 0 0 0-23.62 23.68z"/></defs><g><g transform="translate(-1332 -4877)"><use xlink:href="#zpe9a"/><use fill="#c7b299" xlink:href="#zpe9a"/></g></g></svg>