<svg xmlns="http://www.w3.org/2000/svg" xmlns:xlink="http://www.w3.org/1999/xlink" width="55" height="38" viewBox="0 0 55 38"><defs><path id="3as5a" d="M1388.74 1146.15v-22.17c0-1.36 1.1-2.48 2.46-2.48H1402v-1.44a3.7 3.7 0 0 1 3.7-3.73h6.28a3.7 3.7 0 0 1 3.68 3.73v1.44h10.82a2.48 2.48 0 0 1 2.46 2.48v1.66h-26.2a6.8 6.8 0 0 0-5.75 3.6zm15.73-24.65h8.75v-1.44c0-.69-.55-1.24-1.23-1.24h-6.3c-.32 0-.63.12-.86.36-.23.24-.36.55-.36.88zm25.45 28.26a4.33 4.33 0 0 1-3.54 2.22h-35.3c-1.35 0-1.97-1-1.37-2.22l9.5-19.42a4.32 4.32 0 0 1 3.53-2.22h35.3c1.35 0 1.97 1 1.37 2.22z"/></defs><g><g transform="translate(-1387 -1115)"><use xlink:href="#3as5a"/><use fill="#555" xlink:href="#3as5a"/></g></g></svg>