<svg xmlns="http://www.w3.org/2000/svg" xmlns:xlink="http://www.w3.org/1999/xlink" width="47" height="47" viewBox="0 0 47 47"><defs><path id="idwra" d="M1183 4891.75c0 12.44-8 23.7-21.4 30.11a1.37 1.37 0 0 1-1.2 0c-13.4-6.4-21.4-17.67-21.4-30.11a13.76 13.76 0 0 1 22-10.99l.2-.13c.2-.15.4-.3.62-.43l.36-.22.68-.4.26-.12c.43-.22.88-.4 1.34-.58l.52-.2.6-.17a14.68 14.68 0 0 1 1.94-.39l.46-.06a13.76 13.76 0 0 1 15.02 13.69zm-2.75 0a11.01 11.01 0 0 0-12.06-10.95l-.47.07-.55.08-.6.14a9.84 9.84 0 0 0-1.03.32l-.3.11c-.23.1-.46.19-.68.3l-.24.11a10.4 10.4 0 0 0-1.54.94l-.15.12a10.96 10.96 0 0 0-4.38 8.76 1.37 1.37 0 1 1-2.75 0c0-3.47 1.3-6.64 3.44-9.07a10.94 10.94 0 0 0-6.19-1.93c-6.07 0-11 4.93-11 11 0 11.18 7.18 21.36 19.25 27.35 12.07-6 19.25-16.17 19.25-27.35zm-2.75 0a1.37 1.37 0 0 1-2.75 0 5.5 5.5 0 0 0-5.5-5.5 1.38 1.38 0 0 1 0-2.75c4.55 0 8.25 3.7 8.25 8.25z"/></defs><g><g transform="translate(-1137 -4876)"><use xlink:href="#idwra"/><use fill="#c7b299" xlink:href="#idwra"/></g></g></svg>