<svg xmlns="http://www.w3.org/2000/svg" xmlns:xlink="http://www.w3.org/1999/xlink" width="51" height="47" viewBox="0 0 51 47"><defs><path id="e447a" d="M782.04 4920.75c0 .69-.55 1.25-1.23 1.25h-43.58c-.68 0-1.23-.56-1.23-1.25 0-.7.55-1.25 1.23-1.25h43.58c.68 0 1.23.56 1.23 1.25zm-26.45-26.35c.05-2.17.81-4.33 2.1-5.95 1.94-2.46 1.98-6.49.08-8.28a1.26 1.26 0 0 1-.06-1.77c.46-.5 1.24-.53 1.74-.06 3.17 3 2.63 8.55.16 11.67-1.82 2.3-2.27 6.37-.16 8.37.5.48.53 1.27.06 1.77a1.22 1.22 0 0 1-1.74.06 7.58 7.58 0 0 1-2.18-5.81zm28.41 3.21v2.4a6.2 6.2 0 0 1-6.15 6.24h-2.76a13.51 13.51 0 0 1-12.68 9.05h-6.77a13.59 13.59 0 0 1-13.48-13.66v-12.4c0-.7.56-1.26 1.24-1.26h7.91c1.6-2.48 1.54-6.13-.25-7.81a1.26 1.26 0 0 1-.06-1.77c.47-.5 1.25-.53 1.75-.06 3.16 3 2.62 8.55.15 11.67-1.82 2.3-2.27 6.37-.15 8.37.5.48.52 1.27.06 1.77-.47.5-1.25.53-1.75.06a7.58 7.58 0 0 1-2.18-5.81c.03-1.35.34-2.7.88-3.92h-5.13v11.16a11.1 11.1 0 0 0 11 11.16h6.78c6.06 0 11-5 11-11.16v-11.16h-9.28c-.68 0-1.23-.56-1.23-1.25s.55-1.25 1.23-1.25h10.52c.68 0 1.23.56 1.23 1.25v2.15h1.97a6.2 6.2 0 0 1 6.15 6.23zm-2.47 0a3.72 3.72 0 0 0-3.68-3.73h-1.97v9.87h1.97a3.72 3.72 0 0 0 3.68-3.74z"/></defs><g><g transform="translate(-734 -4876)"><use xlink:href="#e447a"/><use fill="#c7b299" xlink:href="#e447a"/></g></g></svg>