<svg xmlns="http://www.w3.org/2000/svg" xmlns:xlink="http://www.w3.org/1999/xlink" width="103" height="103" viewBox="0 0 103 103"><defs><path id="zrlka" d="M961 3619a50 50 0 1 1 0 100 50 50 0 0 1 0-100z"/><path id="zrlkb" d="M955.93 3685.82a2.06 2.06 0 0 1-2.06-2.06v-29.53a2.06 2.06 0 0 1 3.38-1.58l17.72 14.77a2.06 2.06 0 0 1 0 3.16l-17.72 14.76c-.37.32-.84.48-1.32.48zm2.06-27.19v20.73l12.44-10.36zm2.95 45.37a34.8 34.8 0 0 1-17.1-4.47 2.06 2.06 0 1 1 2.01-3.6 30.99 30.99 0 0 0 37-5.08 30.93 30.93 0 0 0 0-43.7 30.93 30.93 0 0 0-43.7 0 30.93 30.93 0 0 0 0 43.7 2.06 2.06 0 0 1-2.91 2.9 35.06 35.06 0 0 1 0-49.51 35.06 35.06 0 0 1 49.52 0 35.06 35.06 0 0 1 0 49.52 35.1 35.1 0 0 1-24.82 10.24z"/></defs><g><g opacity=".2" transform="translate(-909 -3617)"><use xlink:href="#zrlka"/></g><g transform="translate(-909 -3617)"><use xlink:href="#zrlkb"/><use fill="#fff" xlink:href="#zrlkb"/></g></g></svg>